<svg baseProfile="full" height="935" version="1.1" width="421" xmlns="http://www.w3.org/2000/svg" xmlns:ev="http://www.w3.org/2001/xml-events" xmlns:xlink="http://www.w3.org/1999/xlink"><defs /><style type="text/css"><![CDATA[
        text {
            font: 600 12px 'Segoe UI', Ubuntu, Sans-Serif;
            fill: #2f80ed;
        }
        ]]></style><rect fill="#fffefe" height="935" stroke="#e4e2e2" stroke-opacity="1" stroke-width="1" width="420" x="0.5" y="0.5" /><text x="5" y="20">今天是2024-06-18</text><text fill="black" x="5" y="45">名称: Red Hat Certified Engineer</text><text fill="black" x="5" y="65">签发者: Red Hat 证书编号:  230-003-881</text><text fill="black" x="5" y="85">获取时间: 2023-01-06</text><line stroke="#2f80ed" x1="0.5" x2="420" y1="90" y2="90" /><text fill="black" x="5" y="110">名称: Red Hat Certified System Administrator</text><text fill="black" x="5" y="130">签发者: Red Hat 证书编号:  230-003-881</text><text fill="black" x="5" y="150">获取时间: 2023-01-06</text><line stroke="#2f80ed" x1="0.5" x2="420" y1="155" y2="155" /><text fill="black" x="5" y="175">名称: 华为认证ICT工程师(openEuler)</text><text fill="black" x="5" y="195">签发者: 华为 证书编号:  010103701193809258771409</text><text fill="black" x="5" y="215">获取时间: 2023-11-17</text><line stroke="#2f80ed" x1="0.5" x2="420" y1="220" y2="220" /><text fill="black" x="5" y="240">名称: 2021年度中等职业教育国家奖学金</text><text fill="black" x="5" y="260">签发者: 教育部&amp;人社部 证书编号:  ZZJ202108933</text><text fill="black" x="5" y="280">获取时间: 2021-01-01</text><line stroke="#2f80ed" x1="0.5" x2="420" y1="285" y2="285" /><text fill="black" x="5" y="305">名称: 华为认证ICT工程师(openGauss)</text><text fill="black" x="5" y="325">签发者: 华为 证书编号:  010101401193809258931409</text><text fill="black" x="5" y="345">获取时间: 2023-11-21</text><line stroke="#2f80ed" x1="0.5" x2="420" y1="350" y2="350" /><text fill="black" x="5" y="370">名称: 2022年全国职业院校技能大赛中职组网络搭建与应用二等奖</text><text fill="black" x="5" y="390">签发者: 全国职业院校技能大赛组织委员会 证书编号:  202204238</text><text fill="black" x="5" y="410">获取时间: 2022-01-01</text><line stroke="#2f80ed" x1="0.5" x2="420" y1="415" y2="415" /><text fill="black" x="5" y="435">名称: 2020年全国职业院校技能大赛改革试点赛中职组网络搭建与应用三等奖</text><text fill="black" x="5" y="455">签发者: 全国职业院校技能大赛组织委员会 证书编号:  20200143</text><text fill="black" x="5" y="475">获取时间: 2020-01-01</text><line stroke="#2f80ed" x1="0.5" x2="420" y1="480" y2="480" /><text fill="black" x="5" y="500">名称: 2021年河南省职业院校能大赛中职组网络搭建与应用一等奖（第一名）</text><text fill="black" x="5" y="520">签发者: 河南省教育厅 证书编号:  豫教[2021]38310</text><text fill="black" x="5" y="540">获取时间: 2021-01-01</text><line stroke="#2f80ed" x1="0.5" x2="420" y1="545" y2="545" /><text fill="black" x="5" y="565">名称: 2022年河南省职业院校能大赛高职组云计算一等奖（第一名）</text><text fill="black" x="5" y="585">签发者: 河南省教育厅 证书编号:  豫教[2023]38268</text><text fill="black" x="5" y="605">获取时间: 2022-01-01</text><line stroke="#2f80ed" x1="0.5" x2="420" y1="610" y2="610" /><text fill="black" x="5" y="630">名称: 2023年全国职业院校技能大赛高职组云计算二等奖</text><text fill="black" x="5" y="650">签发者: 全国职业院校技能大赛组织委员会 证书编号:  202312950</text><text fill="black" x="5" y="670">获取时间: 2023-01-01</text><line stroke="#2f80ed" x1="0.5" x2="420" y1="675" y2="675" /><text fill="black" x="5" y="695">名称: 2023年河南省职业院校技能竞赛-云计算赛项邀请赛一等奖（第一名）</text><text fill="black" x="5" y="715">签发者: 河南省高等学校计算机教育研究会 证书编号:  YJS2023001</text><text fill="black" x="5" y="735">获取时间: 2023-12-17</text><line stroke="#2f80ed" x1="0.5" x2="420" y1="740" y2="740" /><text fill="black" x="5" y="760">名称: Certified Kubernetes Security Specialist</text><text fill="black" x="5" y="780">签发者: 云原生计算基金会 证书编号:  LF-m8cypt4f12</text><text fill="black" x="5" y="800">获取时间: 2023-12-03</text><line stroke="#2f80ed" x1="0.5" x2="420" y1="805" y2="805" /><text fill="black" x="5" y="825">名称: Certified Kubernetes Administrator</text><text fill="black" x="5" y="845">签发者: 云原生计算基金会 证书编号:  LF-le3qp9mjqc</text><text fill="black" x="5" y="865">获取时间: 2023-06-24</text><line stroke="#2f80ed" x1="0.5" x2="420" y1="870" y2="870" /><text fill="black" x="5" y="890">名称: 华为ICT大赛2023-2024河南省实践赛计算赛道一等奖（第一名）</text><text fill="black" x="5" y="910">签发者: 华为 证书编号:  无</text><text fill="black" x="5" y="930">获取时间: 2023-12-25</text><line stroke="#2f80ed" x1="0.5" x2="420" y1="935" y2="935" /></svg>